<svg width="370" height="370" viewBox="0 0 370 370" fill="#fff" xmlns="http://www.w3.org/2000/svg">
    <path d="M185 10.4333C286.344 10.4334 368.5 92.5905 368.5 193.936C368.5 266.005 326.953 328.368 266.504 358.386C260.57 361.333 253.537 358.12 251.428 351.788L227.186 279.032C225.404 273.684 227.818 267.861 232.523 264.63C254.807 249.326 269.423 223.664 269.422 194.587C269.42 148.057 231.993 110.267 185.602 109.679L184.504 109.673C137.606 109.673 99.5895 147.69 99.5908 194.587C99.592 224.015 114.565 249.946 137.306 265.18C142.096 268.39 144.578 274.268 142.778 279.671L118.725 351.864C116.616 358.192 109.589 361.406 103.656 358.468C43.1197 328.48 1.50007 266.069 1.5 193.936L1.50391 192.75C2.14216 91.95 84.0516 10.4333 185 10.4333Z" />
</svg>
