<svg xmlns="http://www.w3.org/2000/svg" width="370" height="370" fill="none"><mask id="a" fill="#fff"><path d="M185 9.933c101.62 0 184 82.381 184 184.003 0 72.266-41.66 134.799-102.273 164.899-6.228 3.092-13.576-.292-15.774-6.889l-24.242-72.756c-1.863-5.592.671-11.636 5.529-14.972 22.154-15.215 36.683-40.726 36.682-69.631-.002-46.62-37.797-84.414-84.418-84.414s-84.415 37.793-84.413 84.414c.001 29.255 14.885 55.033 37.493 70.178 4.947 3.314 7.551 9.415 5.669 15.064l-24.054 72.193c-2.197 6.593-9.538 9.978-15.765 6.893C42.734 328.847 1 266.266 1 193.936 1 92.314 83.38 9.933 185 9.933"/></mask><path fill="#fff" d="M185 9.933c101.62 0 184 82.381 184 184.003 0 72.266-41.66 134.799-102.273 164.899-6.228 3.092-13.576-.292-15.774-6.889l-24.242-72.756c-1.863-5.592.671-11.636 5.529-14.972 22.154-15.215 36.683-40.726 36.682-69.631-.002-46.62-37.797-84.414-84.418-84.414s-84.415 37.793-84.413 84.414c.001 29.255 14.885 55.033 37.493 70.178 4.947 3.314 7.551 9.415 5.669 15.064l-24.054 72.193c-2.197 6.593-9.538 9.978-15.765 6.893C42.734 328.847 1 266.266 1 193.936 1 92.314 83.38 9.933 185 9.933"/><path fill="#fff" d="M185 9.933v-1zm184 184.003h1zm-100.078.651h1zm-84.418-84.414v-1zm-84.413 84.414h-1zM1 193.936H0zm118.199 158.086-.949-.316zm-15.765 6.893.444-.896zm128.806-94.697-.566-.825zm-94.656.547.556-.831zm5.669 15.064.949.316zm123.474 79.006-.445-.896zm-15.774-6.889-.949.316zM185 9.933v1c101.068 0 183 81.934 183 183.003h2C370 91.762 287.173 8.933 185 8.933zm184 184.003h-1c0 71.872-41.432 134.066-101.718 164.003l.445.896.445.895C328.111 329.469 370 266.596 370 193.936zm-118.047 158.01.949-.316-24.242-72.756-.949.316-.949.316 24.242 72.756zm-18.713-87.728.567.824c22.413-15.393 37.116-41.207 37.115-70.455h-2c.001 28.562-14.354 53.77-36.248 68.806zm36.682-69.631h1c-.002-47.173-38.245-85.414-85.418-85.414v2c46.069 0 83.416 37.346 83.418 83.414zm-84.418-84.414v-1c-47.174 0-85.414 38.241-85.413 85.414h2c-.002-46.068 37.344-83.414 83.413-83.414zm-84.413 84.414h-1c.001 29.602 15.063 55.686 37.936 71.009l.557-.831.556-.831c-22.342-14.968-37.048-40.44-37.049-69.347zm43.162 85.242-.949-.316-24.054 72.193.949.316.948.316 24.055-72.193zm-39.819 79.086.444-.896C43.505 328.113 2 265.872 2 193.936H0c0 72.725 41.963 135.645 102.99 165.875zM1 193.936h1C2 92.866 83.932 10.933 185 10.933v-2C82.827 8.933 0 91.763 0 193.936zm118.199 158.086-.949-.316c-2.02 6.063-8.732 9.107-14.372 6.313l-.444.896-.444.896c6.814 3.376 14.784-.351 17.157-7.473zm107.512-72.832.949-.316c-1.701-5.103.595-10.706 5.147-13.832l-.567-.824-.566-.825c-5.166 3.548-7.938 10.033-5.912 16.113zm-89.127-14.425-.557.831c4.635 3.105 6.995 8.761 5.277 13.917l.949.316.949.316c2.046-6.143-.803-12.688-6.062-16.211zm129.143 94.07-.445-.896c-5.64 2.801-12.359-.242-14.38-6.309l-.949.316-.949.316c2.375 7.127 10.353 10.852 17.168 7.468z" mask="url(#a)"/></svg>